{"title":"Brake 2012 VODRip XViD DTRG","uid":7057106,"size":1180880896,"categoryP":"video","categoryS":"movies","magnet":"?xt=urn:btih:5e3d30d6b4d127429374e364e497f7235619f3f6&amp;dn=Brake+2012+VODRip+XViD+DTRG&amp;tr=udp%3A%2F%2Ftracker.openbittorrent.com%3A80&amp;tr=udp%3A%2F%2Fopen.demonii.com%3A1337&amp;tr=udp%3A%2F%2Ftracker.coppersurfer.tk%3A6969&amp;tr=udp%3A%2F%2Fexodus.desync.com%3A6969","seeders":0,"leechers":1,"uploader":"MisterNobody","files":2,"time":1330128601,"description":"Video\nID : 0\nFormat : xvid\nCodec ID : xvid\nDuration : 1h 28mn\nBit rate : 1 551 Kbps\nWidth : 592 pixels\nHeight : 322 pixels\nDisplay aspect ratio : 16:9\nFrame rate : 29.970 fps\nBits/(Pixel*Frame) : 0.272\nStream size : 981 MiB (87%)\n\n\n\nAudio\nID : 1\nFormat : AC-3\nFormat/Info : Audio Coding 3\nMode extension : CM (complete main)\nCodec ID : 2000\nDuration : 1h 26mn\nBit rate mode : Constant\nBit rate : 224 Kbps\nChannel(s) : 2 channels\nChannel positions : Front: L R\nSampling rate : 48.0 KHz\nBit depth : 16 bits\nCompression mode : Lossy\nStream size : 138 MiB (12%)\nAlignment : Split accross interleaves\nInterleave, duration : 34 ms (1.03 video frame)\nInterleave, preload duration : 500 ms","torrent":{"xt":"urn:btih:5e3d30d6b4d127429374e364e497f7235619f3f6","amp;dn":"Brake+2012+VODRip+XViD+DTRG","amp;tr":["udp%3A%2F%2Ftracker.openbittorrent.com%3A80","udp%3A%2F%2Fopen.demonii.com%3A1337","udp%3A%2F%2Ftracker.coppersurfer.tk%3A6969","udp%3A%2F%2Fexodus.desync.com%3A6969"],"infoHash":"5e3d30d6b4d127429374e364e497f7235619f3f6","infoHashBuffer":{"type":"Buffer","data":[94,61,48,214,180,209,39,66,147,116,227,100,228,151,247,35,86,25,243,246]},"announce":[],"urlList":[]}}